<mxfile host="Electron" agent="Mozilla/5.0 (Windows NT 10.0; Win64; x64) AppleWebKit/537.36 (KHTML, like Gecko) draw.io/28.1.2 Chrome/138.0.7204.243 Electron/37.4.0 Safari/537.36" version="28.1.2">
  <diagram name="Trang-1" id="qqRYTB3QQUjuXthjuvf0">
    <mxGraphModel dx="974" dy="603" grid="1" gridSize="10" guides="1" tooltips="1" connect="1" arrows="1" fold="1" page="1" pageScale="1" pageWidth="827" pageHeight="1169" math="0" shadow="0">
      <root>
        <mxCell id="0" />
        <mxCell id="1" parent="0" />
        <mxCell id="TpWYWHmediBbyK1PYgCs-2" value="Car" style="html=1;dashed=0;whiteSpace=wrap;" vertex="1" parent="1">
          <mxGeometry x="210" y="60" width="100" height="50" as="geometry" />
        </mxCell>
        <mxCell id="TpWYWHmediBbyK1PYgCs-5" value="Rental" style="html=1;dashed=0;whiteSpace=wrap;" vertex="1" parent="1">
          <mxGeometry x="520" y="60" width="100" height="50" as="geometry" />
        </mxCell>
        <mxCell id="TpWYWHmediBbyK1PYgCs-6" value="Make" style="html=1;dashed=0;whiteSpace=wrap;" vertex="1" parent="1">
          <mxGeometry x="70" y="230" width="100" height="50" as="geometry" />
        </mxCell>
        <mxCell id="TpWYWHmediBbyK1PYgCs-26" value="1" style="edgeStyle=orthogonalEdgeStyle;rounded=0;orthogonalLoop=1;jettySize=auto;html=1;exitX=0.5;exitY=0;exitDx=0;exitDy=0;entryX=0;entryY=0.5;entryDx=0;entryDy=0;endArrow=diamondThin;endFill=1;" edge="1" parent="1" source="TpWYWHmediBbyK1PYgCs-7" target="TpWYWHmediBbyK1PYgCs-2">
          <mxGeometry x="-0.871" y="10" relative="1" as="geometry">
            <mxPoint as="offset" />
          </mxGeometry>
        </mxCell>
        <mxCell id="TpWYWHmediBbyK1PYgCs-64" value="details" style="edgeLabel;html=1;align=center;verticalAlign=middle;resizable=0;points=[];" vertex="1" connectable="0" parent="TpWYWHmediBbyK1PYgCs-26">
          <mxGeometry x="-0.1724" y="2" relative="1" as="geometry">
            <mxPoint x="2" y="17" as="offset" />
          </mxGeometry>
        </mxCell>
        <mxCell id="TpWYWHmediBbyK1PYgCs-7" value="Car Details" style="html=1;dashed=0;whiteSpace=wrap;" vertex="1" parent="1">
          <mxGeometry x="110" y="140" width="100" height="50" as="geometry" />
        </mxCell>
        <mxCell id="TpWYWHmediBbyK1PYgCs-9" value="rented under" style="endArrow=none;html=1;rounded=0;exitX=1;exitY=0.5;exitDx=0;exitDy=0;entryX=0;entryY=0.5;entryDx=0;entryDy=0;" edge="1" parent="1" source="TpWYWHmediBbyK1PYgCs-2" target="TpWYWHmediBbyK1PYgCs-5">
          <mxGeometry x="0.0345" y="15" relative="1" as="geometry">
            <mxPoint x="270" y="160" as="sourcePoint" />
            <mxPoint x="430" y="160" as="targetPoint" />
            <mxPoint as="offset" />
          </mxGeometry>
        </mxCell>
        <mxCell id="TpWYWHmediBbyK1PYgCs-10" value="1..*" style="resizable=0;html=1;whiteSpace=wrap;align=left;verticalAlign=bottom;" connectable="0" vertex="1" parent="TpWYWHmediBbyK1PYgCs-9">
          <mxGeometry x="-1" relative="1" as="geometry" />
        </mxCell>
        <mxCell id="TpWYWHmediBbyK1PYgCs-11" value="0..1" style="resizable=0;html=1;whiteSpace=wrap;align=right;verticalAlign=bottom;" connectable="0" vertex="1" parent="TpWYWHmediBbyK1PYgCs-9">
          <mxGeometry x="1" relative="1" as="geometry" />
        </mxCell>
        <mxCell id="TpWYWHmediBbyK1PYgCs-12" value="Category" style="html=1;dashed=0;whiteSpace=wrap;" vertex="1" parent="1">
          <mxGeometry x="150" y="480" width="100" height="50" as="geometry" />
        </mxCell>
        <mxCell id="TpWYWHmediBbyK1PYgCs-13" value="Vendor" style="html=1;dashed=0;whiteSpace=wrap;" vertex="1" parent="1">
          <mxGeometry x="270" y="480" width="100" height="50" as="geometry" />
        </mxCell>
        <mxCell id="TpWYWHmediBbyK1PYgCs-54" style="edgeStyle=orthogonalEdgeStyle;rounded=0;orthogonalLoop=1;jettySize=auto;html=1;exitX=0.5;exitY=0;exitDx=0;exitDy=0;endArrow=none;endFill=0;dashed=1;" edge="1" parent="1" source="TpWYWHmediBbyK1PYgCs-14">
          <mxGeometry relative="1" as="geometry">
            <mxPoint x="440" y="340" as="targetPoint" />
          </mxGeometry>
        </mxCell>
        <mxCell id="TpWYWHmediBbyK1PYgCs-14" value="Resevation" style="html=1;dashed=0;whiteSpace=wrap;" vertex="1" parent="1">
          <mxGeometry x="390" y="360" width="100" height="20" as="geometry" />
        </mxCell>
        <mxCell id="TpWYWHmediBbyK1PYgCs-56" value="Details" style="edgeStyle=orthogonalEdgeStyle;rounded=0;orthogonalLoop=1;jettySize=auto;html=1;exitX=0.5;exitY=1;exitDx=0;exitDy=0;entryX=1;entryY=0.25;entryDx=0;entryDy=0;endArrow=diamondThin;endFill=1;" edge="1" parent="1" source="TpWYWHmediBbyK1PYgCs-15" target="TpWYWHmediBbyK1PYgCs-17">
          <mxGeometry x="-0.6701" relative="1" as="geometry">
            <mxPoint as="offset" />
          </mxGeometry>
        </mxCell>
        <mxCell id="TpWYWHmediBbyK1PYgCs-59" value="1&lt;br&gt;&lt;div&gt;&lt;br&gt;&lt;/div&gt;" style="edgeLabel;html=1;align=center;verticalAlign=middle;resizable=0;points=[];" vertex="1" connectable="0" parent="TpWYWHmediBbyK1PYgCs-56">
          <mxGeometry x="0.4235" y="-1" relative="1" as="geometry">
            <mxPoint x="80" y="-62" as="offset" />
          </mxGeometry>
        </mxCell>
        <mxCell id="TpWYWHmediBbyK1PYgCs-15" value="Car Model Retails" style="html=1;dashed=0;whiteSpace=wrap;" vertex="1" parent="1">
          <mxGeometry x="390" y="180" width="100" height="50" as="geometry" />
        </mxCell>
        <mxCell id="TpWYWHmediBbyK1PYgCs-16" value="Customer" style="html=1;dashed=0;whiteSpace=wrap;" vertex="1" parent="1">
          <mxGeometry x="670" y="180" width="100" height="50" as="geometry" />
        </mxCell>
        <mxCell id="TpWYWHmediBbyK1PYgCs-17" value="Car Model" style="html=1;dashed=0;whiteSpace=wrap;" vertex="1" parent="1">
          <mxGeometry x="210" y="300" width="100" height="50" as="geometry" />
        </mxCell>
        <mxCell id="TpWYWHmediBbyK1PYgCs-21" value="Address" style="html=1;dashed=0;whiteSpace=wrap;" vertex="1" parent="1">
          <mxGeometry x="610" y="480" width="100" height="50" as="geometry" />
        </mxCell>
        <mxCell id="TpWYWHmediBbyK1PYgCs-22" value="Internet Account" style="html=1;dashed=0;whiteSpace=wrap;" vertex="1" parent="1">
          <mxGeometry x="760" y="420" width="100" height="50" as="geometry" />
        </mxCell>
        <mxCell id="TpWYWHmediBbyK1PYgCs-53" style="edgeStyle=orthogonalEdgeStyle;rounded=0;orthogonalLoop=1;jettySize=auto;html=1;exitX=0.5;exitY=0;exitDx=0;exitDy=0;entryX=0.5;entryY=1;entryDx=0;entryDy=0;endArrow=block;endFill=0;" edge="1" parent="1" source="TpWYWHmediBbyK1PYgCs-23" target="TpWYWHmediBbyK1PYgCs-16">
          <mxGeometry relative="1" as="geometry">
            <mxPoint x="719.9999999999998" y="240" as="targetPoint" />
            <Array as="points">
              <mxPoint x="660" y="260" />
              <mxPoint x="760" y="260" />
            </Array>
          </mxGeometry>
        </mxCell>
        <mxCell id="TpWYWHmediBbyK1PYgCs-23" value="Member" style="html=1;dashed=0;whiteSpace=wrap;" vertex="1" parent="1">
          <mxGeometry x="550" y="330" width="100" height="50" as="geometry" />
        </mxCell>
        <mxCell id="TpWYWHmediBbyK1PYgCs-52" style="edgeStyle=orthogonalEdgeStyle;rounded=0;orthogonalLoop=1;jettySize=auto;html=1;exitX=0.5;exitY=0;exitDx=0;exitDy=0;entryX=0.5;entryY=1;entryDx=0;entryDy=0;endArrow=block;endFill=0;" edge="1" parent="1" source="TpWYWHmediBbyK1PYgCs-24" target="TpWYWHmediBbyK1PYgCs-16">
          <mxGeometry relative="1" as="geometry" />
        </mxCell>
        <mxCell id="TpWYWHmediBbyK1PYgCs-24" value="NonMember" style="html=1;dashed=0;whiteSpace=wrap;" vertex="1" parent="1">
          <mxGeometry x="750" y="290" width="100" height="50" as="geometry" />
        </mxCell>
        <mxCell id="TpWYWHmediBbyK1PYgCs-25" value="Credit card" style="html=1;dashed=0;whiteSpace=wrap;" vertex="1" parent="1">
          <mxGeometry x="490" y="480" width="100" height="50" as="geometry" />
        </mxCell>
        <mxCell id="TpWYWHmediBbyK1PYgCs-27" value="example of" style="endArrow=none;html=1;rounded=0;exitX=0.5;exitY=1;exitDx=0;exitDy=0;entryX=0.5;entryY=0;entryDx=0;entryDy=0;" edge="1" parent="1" source="TpWYWHmediBbyK1PYgCs-2" target="TpWYWHmediBbyK1PYgCs-17">
          <mxGeometry relative="1" as="geometry">
            <mxPoint x="300" y="170" as="sourcePoint" />
            <mxPoint x="590" y="170" as="targetPoint" />
          </mxGeometry>
        </mxCell>
        <mxCell id="TpWYWHmediBbyK1PYgCs-28" value="*" style="resizable=0;html=1;whiteSpace=wrap;align=left;verticalAlign=bottom;" connectable="0" vertex="1" parent="TpWYWHmediBbyK1PYgCs-27">
          <mxGeometry x="-1" relative="1" as="geometry">
            <mxPoint y="20" as="offset" />
          </mxGeometry>
        </mxCell>
        <mxCell id="TpWYWHmediBbyK1PYgCs-29" value="1" style="resizable=0;html=1;whiteSpace=wrap;align=right;verticalAlign=bottom;" connectable="0" vertex="1" parent="TpWYWHmediBbyK1PYgCs-27">
          <mxGeometry x="1" relative="1" as="geometry" />
        </mxCell>
        <mxCell id="TpWYWHmediBbyK1PYgCs-30" value="" style="endArrow=none;html=1;rounded=0;exitX=1;exitY=0.75;exitDx=0;exitDy=0;entryX=0;entryY=0.5;entryDx=0;entryDy=0;edgeStyle=orthogonalEdgeStyle;" edge="1" parent="1" source="TpWYWHmediBbyK1PYgCs-17" target="TpWYWHmediBbyK1PYgCs-16">
          <mxGeometry relative="1" as="geometry">
            <mxPoint x="520" y="180" as="sourcePoint" />
            <mxPoint x="810" y="180" as="targetPoint" />
            <Array as="points">
              <mxPoint x="310" y="340" />
              <mxPoint x="520" y="340" />
              <mxPoint x="520" y="205" />
            </Array>
          </mxGeometry>
        </mxCell>
        <mxCell id="TpWYWHmediBbyK1PYgCs-31" value="*" style="resizable=0;html=1;whiteSpace=wrap;align=left;verticalAlign=bottom;" connectable="0" vertex="1" parent="TpWYWHmediBbyK1PYgCs-30">
          <mxGeometry x="-1" relative="1" as="geometry">
            <mxPoint y="3" as="offset" />
          </mxGeometry>
        </mxCell>
        <mxCell id="TpWYWHmediBbyK1PYgCs-32" value="*" style="resizable=0;html=1;whiteSpace=wrap;align=right;verticalAlign=bottom;" connectable="0" vertex="1" parent="TpWYWHmediBbyK1PYgCs-30">
          <mxGeometry x="1" relative="1" as="geometry" />
        </mxCell>
        <mxCell id="TpWYWHmediBbyK1PYgCs-33" value="classified&lt;div&gt;as&lt;/div&gt;" style="endArrow=none;html=1;rounded=0;exitX=0.25;exitY=1;exitDx=0;exitDy=0;entryX=0.75;entryY=0;entryDx=0;entryDy=0;" edge="1" parent="1" source="TpWYWHmediBbyK1PYgCs-17" target="TpWYWHmediBbyK1PYgCs-12">
          <mxGeometry relative="1" as="geometry">
            <mxPoint x="220" y="450" as="sourcePoint" />
            <mxPoint x="510" y="450" as="targetPoint" />
          </mxGeometry>
        </mxCell>
        <mxCell id="TpWYWHmediBbyK1PYgCs-34" value="*" style="resizable=0;html=1;whiteSpace=wrap;align=left;verticalAlign=bottom;" connectable="0" vertex="1" parent="TpWYWHmediBbyK1PYgCs-33">
          <mxGeometry x="-1" relative="1" as="geometry">
            <mxPoint x="-15" y="20" as="offset" />
          </mxGeometry>
        </mxCell>
        <mxCell id="TpWYWHmediBbyK1PYgCs-35" value="1" style="resizable=0;html=1;whiteSpace=wrap;align=right;verticalAlign=bottom;" connectable="0" vertex="1" parent="TpWYWHmediBbyK1PYgCs-33">
          <mxGeometry x="1" relative="1" as="geometry" />
        </mxCell>
        <mxCell id="TpWYWHmediBbyK1PYgCs-36" value="sold by" style="endArrow=none;html=1;rounded=0;exitX=0.75;exitY=1;exitDx=0;exitDy=0;entryX=0.25;entryY=0;entryDx=0;entryDy=0;" edge="1" parent="1" source="TpWYWHmediBbyK1PYgCs-17" target="TpWYWHmediBbyK1PYgCs-13">
          <mxGeometry relative="1" as="geometry">
            <mxPoint x="350" y="410" as="sourcePoint" />
            <mxPoint x="310" y="540" as="targetPoint" />
          </mxGeometry>
        </mxCell>
        <mxCell id="TpWYWHmediBbyK1PYgCs-37" value="*" style="resizable=0;html=1;whiteSpace=wrap;align=left;verticalAlign=bottom;" connectable="0" vertex="1" parent="TpWYWHmediBbyK1PYgCs-36">
          <mxGeometry x="-1" relative="1" as="geometry">
            <mxPoint x="5" y="20" as="offset" />
          </mxGeometry>
        </mxCell>
        <mxCell id="TpWYWHmediBbyK1PYgCs-38" value="1" style="resizable=0;html=1;whiteSpace=wrap;align=right;verticalAlign=bottom;" connectable="0" vertex="1" parent="TpWYWHmediBbyK1PYgCs-36">
          <mxGeometry x="1" relative="1" as="geometry" />
        </mxCell>
        <mxCell id="TpWYWHmediBbyK1PYgCs-39" value="guaranteed&lt;div&gt;by&lt;/div&gt;" style="endArrow=none;html=1;rounded=0;exitX=0.25;exitY=1;exitDx=0;exitDy=0;entryX=0.75;entryY=0;entryDx=0;entryDy=0;" edge="1" parent="1">
          <mxGeometry relative="1" as="geometry">
            <mxPoint x="574.9999999999998" y="380" as="sourcePoint" />
            <mxPoint x="564.9999999999998" y="500" as="targetPoint" />
          </mxGeometry>
        </mxCell>
        <mxCell id="TpWYWHmediBbyK1PYgCs-40" value="1..*" style="resizable=0;html=1;whiteSpace=wrap;align=left;verticalAlign=bottom;" connectable="0" vertex="1" parent="TpWYWHmediBbyK1PYgCs-39">
          <mxGeometry x="-1" relative="1" as="geometry">
            <mxPoint x="-25" y="20" as="offset" />
          </mxGeometry>
        </mxCell>
        <mxCell id="TpWYWHmediBbyK1PYgCs-41" value="1" style="resizable=0;html=1;whiteSpace=wrap;align=right;verticalAlign=bottom;" connectable="0" vertex="1" parent="TpWYWHmediBbyK1PYgCs-39">
          <mxGeometry x="1" relative="1" as="geometry" />
        </mxCell>
        <mxCell id="TpWYWHmediBbyK1PYgCs-43" value="lives at" style="endArrow=none;html=1;rounded=0;entryX=0.25;entryY=0;entryDx=0;entryDy=0;" edge="1" parent="1" target="TpWYWHmediBbyK1PYgCs-21">
          <mxGeometry relative="1" as="geometry">
            <mxPoint x="618" y="380" as="sourcePoint" />
            <mxPoint x="600" y="560" as="targetPoint" />
          </mxGeometry>
        </mxCell>
        <mxCell id="TpWYWHmediBbyK1PYgCs-44" value="1..*" style="resizable=0;html=1;whiteSpace=wrap;align=left;verticalAlign=bottom;" connectable="0" vertex="1" parent="TpWYWHmediBbyK1PYgCs-43">
          <mxGeometry x="-1" relative="1" as="geometry">
            <mxPoint x="2" y="20" as="offset" />
          </mxGeometry>
        </mxCell>
        <mxCell id="TpWYWHmediBbyK1PYgCs-45" value="1" style="resizable=0;html=1;whiteSpace=wrap;align=right;verticalAlign=bottom;" connectable="0" vertex="1" parent="TpWYWHmediBbyK1PYgCs-43">
          <mxGeometry x="1" relative="1" as="geometry">
            <mxPoint x="-5" as="offset" />
          </mxGeometry>
        </mxCell>
        <mxCell id="TpWYWHmediBbyK1PYgCs-46" value="logs in with" style="endArrow=none;html=1;rounded=0;exitX=1;exitY=0.5;exitDx=0;exitDy=0;entryX=0;entryY=0.5;entryDx=0;entryDy=0;edgeStyle=orthogonalEdgeStyle;" edge="1" parent="1" source="TpWYWHmediBbyK1PYgCs-23" target="TpWYWHmediBbyK1PYgCs-22">
          <mxGeometry relative="1" as="geometry">
            <mxPoint x="790" y="400" as="sourcePoint" />
            <mxPoint x="750" y="530" as="targetPoint" />
          </mxGeometry>
        </mxCell>
        <mxCell id="TpWYWHmediBbyK1PYgCs-47" value="1" style="resizable=0;html=1;whiteSpace=wrap;align=left;verticalAlign=bottom;" connectable="0" vertex="1" parent="TpWYWHmediBbyK1PYgCs-46">
          <mxGeometry x="-1" relative="1" as="geometry" />
        </mxCell>
        <mxCell id="TpWYWHmediBbyK1PYgCs-48" value="1" style="resizable=0;html=1;whiteSpace=wrap;align=right;verticalAlign=bottom;" connectable="0" vertex="1" parent="TpWYWHmediBbyK1PYgCs-46">
          <mxGeometry x="1" relative="1" as="geometry" />
        </mxCell>
        <mxCell id="TpWYWHmediBbyK1PYgCs-61" value="taken out by" style="endArrow=none;html=1;rounded=0;exitX=1;exitY=0.5;exitDx=0;exitDy=0;entryX=0.5;entryY=0;entryDx=0;entryDy=0;edgeStyle=orthogonalEdgeStyle;" edge="1" parent="1" source="TpWYWHmediBbyK1PYgCs-5" target="TpWYWHmediBbyK1PYgCs-16">
          <mxGeometry x="0.3514" relative="1" as="geometry">
            <mxPoint x="770" y="90" as="sourcePoint" />
            <mxPoint x="1060" y="90" as="targetPoint" />
            <mxPoint as="offset" />
          </mxGeometry>
        </mxCell>
        <mxCell id="TpWYWHmediBbyK1PYgCs-62" value="*" style="resizable=0;html=1;whiteSpace=wrap;align=left;verticalAlign=bottom;" connectable="0" vertex="1" parent="TpWYWHmediBbyK1PYgCs-61">
          <mxGeometry x="-1" relative="1" as="geometry" />
        </mxCell>
        <mxCell id="TpWYWHmediBbyK1PYgCs-63" value="1" style="resizable=0;html=1;whiteSpace=wrap;align=right;verticalAlign=bottom;" connectable="0" vertex="1" parent="TpWYWHmediBbyK1PYgCs-61">
          <mxGeometry x="1" relative="1" as="geometry" />
        </mxCell>
        <mxCell id="TpWYWHmediBbyK1PYgCs-65" value="makes" style="endArrow=none;html=1;rounded=0;exitX=0;exitY=0.5;exitDx=0;exitDy=0;entryX=0.5;entryY=1;entryDx=0;entryDy=0;edgeStyle=orthogonalEdgeStyle;" edge="1" parent="1" source="TpWYWHmediBbyK1PYgCs-17" target="TpWYWHmediBbyK1PYgCs-6">
          <mxGeometry x="-0.0968" y="-15" relative="1" as="geometry">
            <mxPoint x="120" y="390" as="sourcePoint" />
            <mxPoint x="110" y="520" as="targetPoint" />
            <mxPoint as="offset" />
          </mxGeometry>
        </mxCell>
        <mxCell id="TpWYWHmediBbyK1PYgCs-66" value="*" style="resizable=0;html=1;whiteSpace=wrap;align=left;verticalAlign=bottom;" connectable="0" vertex="1" parent="TpWYWHmediBbyK1PYgCs-65">
          <mxGeometry x="-1" relative="1" as="geometry">
            <mxPoint x="-15" y="20" as="offset" />
          </mxGeometry>
        </mxCell>
        <mxCell id="TpWYWHmediBbyK1PYgCs-67" value="1..*" style="resizable=0;html=1;whiteSpace=wrap;align=right;verticalAlign=bottom;" connectable="0" vertex="1" parent="TpWYWHmediBbyK1PYgCs-65">
          <mxGeometry x="1" relative="1" as="geometry">
            <mxPoint y="20" as="offset" />
          </mxGeometry>
        </mxCell>
      </root>
    </mxGraphModel>
  </diagram>
</mxfile>
